<?xml version="1.0" standalone="no"?><!DOCTYPE svg PUBLIC "-//W3C//DTD SVG 1.1//EN" "http://www.w3.org/Graphics/SVG/1.1/DTD/svg11.dtd"><svg t="1717655899523" class="icon" viewBox="0 0 1024 1024" version="1.1" xmlns="http://www.w3.org/2000/svg" p-id="5662" xmlns:xlink="http://www.w3.org/1999/xlink" width="128" height="128"><path d="M56.888889 132.740741m94.814815 0l606.814815 0q94.814815 0 94.814814 94.814815l0 470.281481q0 94.814815-94.814814 94.814815l-606.814815 0q-94.814815 0-94.814815-94.814815l0-470.281481q0-94.814815 94.814815-94.814815Z" fill="#4F99FF" p-id="5663"></path><path d="M125.155556 622.004148m94.814814 0l174.45926 0q94.814815 0 94.814814 94.814815l0 106.192593q0 94.814815-94.814814 94.814814l-174.45926 0q-94.814815 0-94.814814-94.814814l0-106.192593q0-94.814815 94.814814-94.814815Z" fill="#C1D5FF" opacity=".8" p-id="5664"></path><path d="M557.511111 329.955556a94.814815 94.814815 0 0 1 94.814815-94.814815H872.296296a94.814815 94.814815 0 0 1 94.814815 94.814815v493.037037a94.814815 94.814815 0 0 1-94.814815 94.814814H652.325926a94.814815 94.814815 0 0 1-94.814815-94.814814v-493.037037z m113.777778-49.303704H853.333333v45.511111h-182.044444v-45.511111z m91.022222 603.022222a45.511111 45.511111 0 1 0 0-91.022222 45.511111 45.511111 0 0 0 0 91.022222z" fill="#C1D5FF" opacity=".8" p-id="5665"></path><path d="M125.155556 269.274074m-22.755556 0a22.755556 22.755556 0 1 0 45.511111 0 22.755556 22.755556 0 1 0-45.511111 0Z" fill="#FFFFFF" p-id="5666"></path><path d="M193.422222 269.274074m-22.755555 0a22.755556 22.755556 0 1 0 45.511111 0 22.755556 22.755556 0 1 0-45.511111 0Z" fill="#FFFFFF" p-id="5667"></path><path d="M261.688889 269.274074m-22.755556 0a22.755556 22.755556 0 1 0 45.511111 0 22.755556 22.755556 0 1 0-45.511111 0Z" fill="#FFFFFF" p-id="5668"></path></svg>