<?xml version="1.0" standalone="no"?><!DOCTYPE svg PUBLIC "-//W3C//DTD SVG 1.1//EN" "http://www.w3.org/Graphics/SVG/1.1/DTD/svg11.dtd"><svg t="1717656572859" class="icon" viewBox="0 0 1024 1024" version="1.1" xmlns="http://www.w3.org/2000/svg" p-id="37404" xmlns:xlink="http://www.w3.org/1999/xlink" width="128" height="128"><path d="M681.472 140.8c0 42.496 34.304 76.8 76.8 76.8s76.8-34.304 76.8-76.8-34.304-76.8-76.8-76.8c-41.984 0-76.8 34.304-76.8 76.8z" fill="#2277DA" p-id="37405"></path><path d="M829.952 370.176c-5.632-2.56-11.776-5.12-17.92-7.68 1.024-6.656 2.048-12.8 3.072-18.944 3.072-22.016 4.608-43.008 4.096-62.976-12.288 4.608-25.6 7.68-39.424 8.704 0 15.36-1.536 31.232-4.096 48.64l-1.536 10.752c-44.032-14.336-93.184-25.6-145.408-31.744-27.648-36.352-56.832-69.12-86.528-97.28 7.168-5.632 14.848-10.752 22.016-15.36 23.552-15.36 46.08-27.136 67.072-34.816-1.024-6.144-1.536-12.288-1.536-18.944 0-8.192 0.512-15.872 2.048-23.04-28.16 8.704-57.856 23.04-89.088 43.52-10.24 6.656-20.48 13.824-30.72 22.016-9.728-8.192-19.968-15.872-29.696-23.04-81.92-58.88-157.184-74.24-210.944-43.008-53.76 31.232-78.336 103.936-68.096 204.288 1.024 9.216 2.048 18.944 3.584 28.16-9.216 3.584-17.92 7.168-26.624 11.264-92.16 41.472-142.848 98.816-142.848 161.28s50.688 119.808 142.848 161.28c5.632 2.56 11.776 5.12 17.92 7.68-1.024 6.656-2.048 12.8-3.072 18.944-14.336 100.352 7.168 173.568 59.392 206.848 19.456 12.288 41.984 18.432 67.072 18.432 42.496 0 92.16-17.92 145.408-52.736 10.24-6.656 20.48-13.824 30.72-22.016 9.728 8.192 19.968 15.872 29.696 23.04 54.272 38.912 105.472 58.88 149.504 58.88 22.528 0 43.008-5.12 61.44-15.872 53.76-31.232 78.336-103.936 68.096-204.288-1.024-9.216-2.048-18.944-3.584-28.16 9.216-3.584 17.92-7.168 26.624-11.264 92.16-41.472 142.848-98.816 142.848-161.28s-50.176-119.808-142.336-161.28z m-63.488 17.408c-7.68 32.256-18.944 66.048-33.28 100.352-10.752-22.528-23.04-45.056-35.84-67.584-11.776-20.48-24.064-39.936-36.864-58.88 38.4 6.144 73.728 14.848 105.984 26.112z m-7.68 289.792c-31.232 10.24-65.024 17.92-100.352 24.064 11.776-16.384 23.552-33.792 34.816-51.2 13.824-22.016 26.624-44.032 38.4-66.048 11.264 32.256 20.48 63.488 27.136 93.184z m-95.232-237.568c18.432 31.744 34.304 64 48.64 95.744-15.36 31.232-32.768 62.464-52.224 93.696-17.92 28.16-36.864 54.784-56.32 79.872-31.744 3.072-64.512 4.608-97.792 4.608-34.816 0-69.12-2.048-102.4-5.632-19.456-27.136-38.4-55.808-55.808-86.016-18.432-31.744-34.304-64-48.64-95.744 15.36-31.232 32.768-62.464 52.224-93.696 17.92-28.16 36.864-54.784 56.32-79.872 31.744-3.072 64.512-4.608 97.792-4.608 34.816 0 69.12 2.048 102.4 5.632 19.456 27.136 38.4 55.808 55.808 86.016z m-350.72 202.752c11.776 20.48 24.064 39.936 36.864 58.88-37.376-6.656-73.216-15.36-105.472-26.112 7.68-32.256 18.944-66.048 33.28-100.352 10.24 22.528 22.016 45.056 35.328 67.584zM251.904 385.024c31.232-10.24 65.024-17.92 100.352-24.064-11.776 16.384-23.552 33.792-34.816 51.2-13.824 22.016-26.624 44.032-38.4 66.048-11.776-31.744-20.992-62.976-27.136-93.184z m259.584-140.8c21.504 19.968 43.008 42.496 62.976 67.072-22.528-1.536-45.568-2.048-69.12-2.048-20.992 0-41.472 0.512-61.952 2.048 22.016-25.088 45.056-47.616 68.096-67.072z m-220.16-83.968c11.776-6.656 26.112-10.24 41.472-10.24 35.328 0 79.36 17.408 126.464 51.2 7.168 5.12 14.336 10.752 21.504 16.384-32.256 28.16-64 61.44-94.208 97.792-50.688 6.144-98.816 15.872-141.824 29.696-1.024-6.656-1.536-12.8-2.048-18.944-8.192-82.432 9.216-142.848 48.64-165.888z m-94.72 496.128c-76.288-34.304-119.296-79.872-119.296-125.44S120.32 440.32 196.608 406.016c5.632-2.56 11.776-5.12 17.408-7.68 9.216 41.472 23.04 83.968 40.96 127.488-20.992 45.568-37.376 91.136-48.64 134.656-3.072-1.024-6.656-2.56-9.728-4.096zM445.44 858.624c-69.632 45.568-131.584 57.856-169.984 33.792-38.4-24.064-53.248-85.504-41.472-167.936l1.536-10.752c44.032 14.336 93.184 25.6 145.408 31.744 27.648 36.352 56.832 69.12 86.528 97.28-7.168 6.144-14.336 11.264-22.016 15.872z m53.76-39.936c-21.504-19.968-43.008-42.496-62.976-67.072 22.528 1.536 45.568 2.048 69.12 2.048 20.992 0 41.472-0.512 61.952-2.048-22.016 24.576-45.056 47.104-68.096 67.072z m220.16 83.456c-38.912 22.528-100.352 7.68-167.936-40.96-7.168-5.12-14.336-10.752-21.504-16.384 32.256-28.16 64-61.44 94.208-97.792 50.688-6.144 98.816-15.872 141.824-29.696 1.024 6.656 1.536 12.8 2.048 18.944 8.192 82.432-9.216 143.36-48.64 165.888z m94.72-245.76c-5.632 2.56-11.776 5.12-17.92 7.68-9.216-41.472-23.04-83.968-40.96-127.488 20.992-45.568 37.376-91.136 48.64-134.656 3.584 1.536 6.656 3.072 10.24 4.608 76.288 34.304 119.296 79.872 119.296 125.44s-43.52 90.112-119.296 124.416z" fill="#2277DA" p-id="37406"></path></svg>