<?xml version="1.0" standalone="no"?><!DOCTYPE svg PUBLIC "-//W3C//DTD SVG 1.1//EN" "http://www.w3.org/Graphics/SVG/1.1/DTD/svg11.dtd"><svg height="1024" node-id="1" sillyvg="true" template-height="1024" template-width="1024" version="1.1" viewBox="0 0 1024 1024" width="1024" xmlns="http://www.w3.org/2000/svg" xmlns:xlink="http://www.w3.org/1999/xlink"><defs node-id="114"><linearGradient gradientUnits="objectBoundingBox" id="SVGID_1_" node-id="9" spreadMethod="pad" x1="-1939.6713" x2="-1948.7948" y1="-419.6226" y2="-419.6226"><stop offset="0" stop-color="#7da4fe"></stop><stop offset="1" stop-color="#d4e3ff"></stop></linearGradient><linearGradient gradientUnits="objectBoundingBox" id="SVGID_2_" node-id="13" spreadMethod="pad" x1="-1942.03" x2="-1946.8134" y1="-415.9487" y2="-420.6938"><stop offset="0" stop-color="#6aacee"></stop><stop offset="1" stop-color="#c2e7fc"></stop></linearGradient><linearGradient gradientUnits="objectBoundingBox" id="SVGID_3_" node-id="18" spreadMethod="pad" x1="-1939.713" x2="-1932.7667" y1="-423.968" y2="-417.3228"><stop offset="0" stop-color="#7da4fe"></stop><stop offset="1" stop-color="#d4e3ff"></stop></linearGradient><linearGradient gradientUnits="objectBoundingBox" id="SVGID_4_" node-id="22" spreadMethod="pad" x1="-1935.6128" x2="-1940.358" y1="-423.2166" y2="-418.4332"><stop offset="0" stop-color="#6aacee"></stop><stop offset="1" stop-color="#c2e7fc"></stop></linearGradient><linearGradient gradientUnits="objectBoundingBox" id="SVGID_5_" node-id="27" spreadMethod="pad" x1="-1933.3893" x2="-1939.3177" y1="-333.2773" y2="-335.9234"><stop offset="0" stop-color="#7da4fe"></stop><stop offset="1" stop-color="#d4e3ff"></stop></linearGradient><linearGradient gradientUnits="objectBoundingBox" id="SVGID_6_" node-id="31" spreadMethod="pad" x1="-1933.2803" x2="-1938.7743" y1="-334.2078" y2="-335.0294"><stop offset="0" stop-color="#6aacee"></stop><stop offset="1" stop-color="#c2e7fc"></stop></linearGradient><linearGradient gradientUnits="objectBoundingBox" id="SVGID_7_" node-id="36" spreadMethod="pad" x1="-1947.9651" x2="-1942.6628" y1="-333.9199" y2="-340.2926"><stop offset="0" stop-color="#7da4fe"></stop><stop offset="1" stop-color="#d4e3ff"></stop></linearGradient><linearGradient gradientUnits="objectBoundingBox" id="SVGID_8_" node-id="40" spreadMethod="pad" x1="-1945.8871" x2="-1946.1354" y1="-333.9617" y2="-338.4503"><stop offset="0" stop-color="#6aacee"></stop><stop offset="1" stop-color="#c2e7fc"></stop></linearGradient><linearGradient gradientUnits="objectBoundingBox" id="SVGID_9_" node-id="45" spreadMethod="pad" x1="-1956.9164" x2="-1952.0746" y1="-371.1068" y2="-373.8923"><stop offset="0" stop-color="#bed3ff"></stop><stop offset="1" stop-color="#d7e5ff"></stop></linearGradient><linearGradient gradientUnits="objectBoundingBox" id="SVGID_10_" node-id="49" spreadMethod="pad" x1="-1951.3156" x2="-1956.0989" y1="-369.682" y2="-374.4272"><stop offset="0" stop-color="#c1e0ff"></stop><stop offset="1" stop-color="#eaf7ff"></stop></linearGradient><linearGradient gradientUnits="objectBoundingBox" id="SVGID_11_" node-id="54" spreadMethod="pad" x1="-1962.7445" x2="-1957.9027" y1="-381.0662" y2="-383.8517"><stop offset="0" stop-color="#bed3ff"></stop><stop offset="1" stop-color="#d7e5ff"></stop></linearGradient><linearGradient gradientUnits="objectBoundingBox" id="SVGID_12_" node-id="58" spreadMethod="pad" x1="-1957.1924" x2="-1961.9757" y1="-379.9869" y2="-384.7321"><stop offset="0" stop-color="#6aacee"></stop><stop offset="1" stop-color="#c2e7fc"></stop></linearGradient><linearGradient gradientUnits="objectBoundingBox" id="SVGID_13_" node-id="62" spreadMethod="pad" x1="-1957.1924" x2="-1961.9757" y1="-379.9869" y2="-384.7321"><stop offset="0" stop-color="#c1e0ff"></stop><stop offset="1" stop-color="#eaf7ff"></stop></linearGradient><linearGradient gradientUnits="objectBoundingBox" id="SVGID_14_" node-id="67" spreadMethod="pad" x1="-1941.0472" x2="-1946.1888" y1="-350.642" y2="-355.7836"><stop offset="0" stop-color="#7da4fe"></stop><stop offset="1" stop-color="#ffffff"></stop></linearGradient><linearGradient gradientUnits="objectBoundingBox" id="SVGID_15_" node-id="71" spreadMethod="pad" x1="-1940.665" x2="-1945.4484" y1="-350.2833" y2="-355.0285"><stop offset="0" stop-color="#6aacee"></stop><stop offset="1" stop-color="#c2e7fc" stop-opacity="0"></stop></linearGradient><linearGradient gradientUnits="objectBoundingBox" id="SVGID_16_" node-id="76" spreadMethod="pad" x1="-1422.3761" x2="-1415.8804" y1="-1392.7556" y2="-1391.2916"><stop offset="0" stop-color="#ffd995"></stop><stop offset="1" stop-color="#ff9d6b"></stop></linearGradient><linearGradient gradientUnits="objectBoundingBox" id="SVGID_17_" node-id="81" spreadMethod="pad" x1="-1854.2954" x2="-1848.6338" y1="-112.6566" y2="-108.6218"><stop offset="0" stop-color="#ffd995"></stop><stop offset="1" stop-color="#ff9d6b"></stop></linearGradient><linearGradient gradientUnits="objectBoundingBox" id="SVGID_18_" node-id="87" spreadMethod="pad" x1="-1652.175" x2="-1647.5444" y1="-516.6826" y2="-512.9126"><stop offset="0" stop-color="#7da4fe"></stop><stop offset="1" stop-color="#d4e3ff"></stop></linearGradient><linearGradient gradientUnits="objectBoundingBox" id="SVGID_19_" node-id="91" spreadMethod="pad" x1="-1646.5701" x2="-1651.3534" y1="-511.5941" y2="-516.3393"><stop offset="0" stop-color="#c1e0ff"></stop><stop offset="1" stop-color="#eaf7ff"></stop></linearGradient><linearGradient gradientUnits="objectBoundingBox" id="SVGID_20_" node-id="95" spreadMethod="pad" x1="-1646.5701" x2="-1651.3534" y1="-511.5941" y2="-516.3393"><stop offset="0" stop-color="#6aacee"></stop><stop offset="1" stop-color="#c2e7fc"></stop></linearGradient><linearGradient gradientUnits="objectBoundingBox" id="SVGID_21_" node-id="101" spreadMethod="pad" x1="-1574.3018" x2="-1569.6711" y1="-632.1608" y2="-628.3909"><stop offset="0" stop-color="#7da4fe"></stop><stop offset="1" stop-color="#d4e3ff"></stop></linearGradient><linearGradient gradientUnits="objectBoundingBox" id="SVGID_22_" node-id="105" spreadMethod="pad" x1="-1568.6968" x2="-1573.4801" y1="-627.0723" y2="-631.8175"><stop offset="0" stop-color="#c1e0ff"></stop><stop offset="1" stop-color="#eaf7ff"></stop></linearGradient><linearGradient gradientUnits="objectBoundingBox" id="SVGID_23_" node-id="109" spreadMethod="pad" x1="-1568.6968" x2="-1573.4801" y1="-627.0723" y2="-631.8175"><stop offset="0" stop-color="#6aacee"></stop><stop offset="1" stop-color="#c2e7fc"></stop></linearGradient></defs><g node-id="347"><path d="M 923.30 746.30 L 923.10 749.80 L 922.30 753.40 L 921.00 756.90 L 919.10 760.50 L 916.50 764.20 L 913.30 768.00 L 909.20 772.00 L 904.70 775.70 L 899.40 779.60 L 893.20 783.50 L 886.00 787.50 L 877.80 791.50 L 868.40 795.70 L 857.90 799.80 L 846.20 804.00 L 833.20 808.10 L 818.80 812.20 L 802.90 816.20 L 783.50 820.60 L 762.60 824.70 L 740.20 828.60 L 717.80 831.90 L 694.20 835.00 L 669.40 837.70 L 644.60 839.90 L 619.00 841.80 L 592.60 843.30 L 566.20 844.30 L 539.30 845.00 L 512.00 845.20 L 484.70 845.00 L 457.80 844.30 L 431.40 843.30 L 405.00 841.80 L 379.40 839.90 L 354.60 837.70 L 329.80 835.00 L 306.20 831.90 L 283.80 828.60 L 261.40 824.70 L 240.50 820.60 L 221.10 816.20 L 205.20 812.20 L 190.80 808.10 L 177.80 804.00 L 166.10 799.80 L 155.60 795.70 L 146.20 791.50 L 138.00 787.50 L 130.80 783.50 L 124.60 779.60 L 119.30 775.70 L 114.80 772.00 L 110.70 768.00 L 107.50 764.20 L 104.90 760.50 L 103.00 756.90 L 101.70 753.40 L 100.90 749.80 L 100.70 746.30 L 100.90 742.80 L 101.70 739.30 L 103.00 735.70 L 104.90 732.10 L 107.50 728.40 L 110.70 724.60 L 114.80 720.70 L 119.30 716.90 L 124.60 713.10 L 130.80 709.20 L 138.00 705.20 L 146.20 701.10 L 155.60 697.00 L 166.10 692.80 L 177.80 688.70 L 190.80 684.60 L 205.20 680.50 L 221.10 676.40 L 240.50 672.10 L 261.40 667.90 L 283.80 664.10 L 306.20 660.70 L 329.80 657.70 L 354.60 655.00 L 379.40 652.80 L 405.00 650.90 L 431.40 649.40 L 457.80 648.30 L 484.70 647.70 L 512.00 647.50 L 539.30 647.70 L 566.20 648.30 L 592.60 649.40 L 619.00 650.90 L 644.60 652.80 L 669.40 655.00 L 694.20 657.70 L 717.80 660.70 L 740.20 664.10 L 762.60 667.90 L 783.50 672.10 L 802.90 676.40 L 818.80 680.50 L 833.20 684.60 L 846.20 688.70 L 857.90 692.80 L 868.40 697.00 L 877.80 701.10 L 886.00 705.20 L 893.20 709.20 L 899.40 713.10 L 904.70 716.90 L 909.20 720.70 L 913.30 724.60 L 916.50 728.40 L 919.10 732.10 L 921.00 735.70 L 922.30 739.30 L 923.10 742.80 L 923.30 746.30 Z" fill="#9fcfff" fill-opacity="0.2" fill-rule="nonzero" group-id="1" node-id="259" stroke="none" target-height="197.70001" target-width="822.6" target-x="100.7" target-y="647.5"></path></g><g node-id="348"><g node-id="354"><path d="M 486.30 398.80 L 735.50 425.60 L 598.30 474.80 L 486.30 477.10 L 486.30 398.80 Z" fill="url(#SVGID_1_)" fill-rule="evenodd" group-id="2,8" node-id="266" stroke="none" target-height="78.30002" target-width="249.20001" target-x="486.3" target-y="398.8"></path><path d="M 486.30 398.80 L 735.50 425.60 L 598.30 474.80 L 486.30 477.10 L 486.30 398.80 Z" fill="url(#SVGID_2_)" fill-rule="evenodd" group-id="2,8" node-id="268" stroke="none" target-height="78.30002" target-width="249.20001" target-x="486.3" target-y="398.8"></path></g><g node-id="355"><path d="M 278.40 445.00 L 486.30 398.80 L 486.30 475.90 L 278.40 445.00 Z" fill="url(#SVGID_3_)" fill-rule="evenodd" group-id="2,9" node-id="273" stroke="none" target-height="77.100006" target-width="207.9" target-x="278.4" target-y="398.8"></path><path d="M 278.40 445.00 L 486.30 398.80 L 486.30 475.90 L 278.40 445.00 Z" fill="url(#SVGID_4_)" fill-rule="evenodd" group-id="2,9" node-id="275" stroke="none" target-height="77.100006" target-width="207.9" target-x="278.4" target-y="398.8"></path></g><g node-id="356"><path d="M 518.80 470.20 L 735.50 425.50 L 735.50 696.90 L 735.30 699.20 L 734.60 701.20 L 733.50 703.10 L 732.00 704.70 L 730.30 705.90 L 728.20 706.80 L 518.80 769.40 L 518.80 470.20 Z" fill="url(#SVGID_5_)" fill-rule="evenodd" group-id="2,10" node-id="280" stroke="none" target-height="343.90002" target-width="216.70001" target-x="518.8" target-y="425.5"></path><path d="M 518.80 470.20 L 735.50 425.50 L 735.50 696.90 L 735.30 699.20 L 734.60 701.20 L 733.50 703.10 L 732.00 704.70 L 730.30 705.90 L 728.20 706.80 L 518.80 769.40 L 518.80 470.20 Z" fill="url(#SVGID_6_)" fill-rule="evenodd" group-id="2,10" node-id="282" stroke="none" target-height="343.90002" target-width="216.70001" target-x="518.8" target-y="425.5"></path></g><g node-id="357"><path d="M 278.40 445.00 L 518.80 470.30 L 518.80 769.40 L 286.70 724.50 L 284.40 723.70 L 282.40 722.50 L 280.70 720.90 L 279.50 719.00 L 278.70 716.80 L 278.40 714.40 L 278.40 445.00 Z" fill="url(#SVGID_7_)" fill-rule="evenodd" group-id="2,11" node-id="287" stroke="none" target-height="324.40002" target-width="240.4" target-x="278.4" target-y="445"></path><path d="M 278.40 445.00 L 518.80 470.30 L 518.80 769.40 L 286.70 724.50 L 284.40 723.70 L 282.40 722.50 L 280.70 720.90 L 279.50 719.00 L 278.70 716.80 L 278.40 714.40 L 278.40 445.00 Z" fill="url(#SVGID_8_)" fill-rule="evenodd" group-id="2,11" node-id="289" stroke="none" target-height="324.40002" target-width="240.4" target-x="278.4" target-y="445"></path></g><g node-id="358"><path d="M 518.80 470.20 L 734.90 425.40 L 831.10 495.50 L 832.70 497.50 L 833.10 498.70 L 833.10 500.50 L 832.50 502.20 L 831.80 503.20 L 829.50 504.60 L 636.80 562.20 L 633.90 562.80 L 628.00 563.20 L 625.10 562.80 L 619.40 561.20 L 614.30 558.30 L 612.00 556.40 L 518.80 470.20 Z" fill="url(#SVGID_9_)" fill-rule="evenodd" group-id="2,12" node-id="294" stroke="none" target-height="137.80002" target-width="314.3" target-x="518.8" target-y="425.4"></path><path d="M 518.80 470.20 L 734.90 425.40 L 831.10 495.50 L 832.70 497.50 L 833.10 498.70 L 833.10 500.50 L 832.50 502.20 L 831.80 503.20 L 829.50 504.60 L 636.80 562.20 L 633.90 562.80 L 628.00 563.20 L 625.10 562.80 L 619.40 561.20 L 614.30 558.30 L 612.00 556.40 L 518.80 470.20 Z" fill="url(#SVGID_10_)" fill-rule="evenodd" group-id="2,12" node-id="296" stroke="none" target-height="137.80002" target-width="314.3" target-x="518.8" target-y="425.4"></path></g><g node-id="359"><path d="M 278.40 445.00 L 518.80 470.20 L 430.80 558.00 L 425.20 561.60 L 419.00 563.90 L 412.40 564.80 L 405.60 564.20 L 193.40 522.90 L 191.00 521.80 L 189.60 519.70 L 189.30 517.20 L 190.20 514.90 L 191.20 513.90 L 278.40 445.00 Z" fill="url(#SVGID_11_)" fill-rule="evenodd" group-id="2,13" node-id="301" stroke="none" target-height="119.79999" target-width="329.5" target-x="189.3" target-y="445"></path><path d="M 278.40 445.00 L 518.80 470.20 L 430.80 558.00 L 425.20 561.60 L 419.00 563.90 L 412.40 564.80 L 405.60 564.20 L 193.40 522.90 L 191.00 521.80 L 189.60 519.70 L 189.30 517.20 L 190.20 514.90 L 191.20 513.90 L 278.40 445.00 Z" fill="url(#SVGID_12_)" fill-rule="evenodd" group-id="2,13" node-id="303" stroke="none" target-height="119.79999" target-width="329.5" target-x="189.3" target-y="445"></path><path d="M 278.40 445.00 L 518.80 470.20 L 430.80 558.00 L 425.20 561.60 L 419.00 563.90 L 412.40 564.80 L 405.60 564.20 L 193.40 522.90 L 191.00 521.80 L 189.60 519.70 L 189.30 517.20 L 190.20 514.90 L 191.20 513.90 L 278.40 445.00 Z" fill="url(#SVGID_13_)" fill-rule="evenodd" group-id="2,13" node-id="305" stroke="none" target-height="119.79999" target-width="329.5" target-x="189.3" target-y="445"></path></g></g><g node-id="349"><path d="M 526.30 201.00 L 522.20 201.30 L 518.40 202.10 L 514.80 203.40 L 511.50 205.20 L 508.40 207.40 L 505.60 210.10 L 503.20 213.10 L 501.10 216.40 L 499.40 220.00 L 498.10 223.80 L 497.30 227.90 L 496.90 232.20 L 497.10 236.70 L 497.70 240.90 L 498.90 245.00 L 500.50 248.90 L 502.60 252.50 L 505.20 255.90 L 508.30 259.10 L 511.90 262.00 L 515.70 264.50 L 520.10 266.60 L 524.90 268.40 L 530.40 269.90 L 525.30 274.50 L 519.30 279.20 L 512.40 283.90 L 504.50 288.50 L 495.30 293.20 L 486.60 297.10 L 476.80 301.00 L 466.00 304.70 L 454.00 308.30 L 440.70 311.80 L 439.20 312.50 L 438.20 313.70 L 437.60 315.20 L 437.70 316.90 L 438.40 318.40 L 439.50 319.40 L 441.00 320.00 L 442.70 319.90 L 457.40 316.00 L 470.70 311.90 L 482.70 307.60 L 493.40 303.20 L 502.90 298.70 L 511.30 294.10 L 518.80 289.60 L 525.30 285.00 L 531.10 280.50 L 536.10 275.90 L 540.50 271.20 L 546.40 271.30 L 552.40 270.70 L 558.50 269.70 L 564.70 268.00 L 571.10 265.70 L 577.70 262.80 L 584.50 259.10 L 591.60 254.70 L 598.90 249.50 L 606.40 243.40 L 614.20 236.40 L 622.30 228.40 L 630.70 219.30 L 639.50 209.00 L 648.60 197.40 L 658.10 184.50 L 668.00 170.10 L 678.40 154.10 L 678.90 152.50 L 678.90 150.90 L 678.20 149.50 L 677.10 148.30 L 675.50 147.70 L 673.90 147.80 L 672.50 148.40 L 671.40 149.60 L 660.50 166.40 L 650.20 181.30 L 640.40 194.50 L 631.10 206.20 L 622.20 216.40 L 613.70 225.40 L 605.60 233.10 L 597.90 239.70 L 590.60 245.30 L 583.60 250.00 L 576.90 253.90 L 570.50 257.00 L 564.30 259.40 L 558.30 261.20 L 552.50 262.30 L 546.80 262.90 L 549.60 258.10 L 551.90 253.40 L 553.60 248.60 L 554.80 243.70 L 555.50 238.90 L 555.60 234.30 L 555.20 229.80 L 554.30 225.40 L 553.00 221.40 L 551.30 217.50 L 549.20 214.00 L 546.80 210.80 L 544.00 207.90 L 541.00 205.60 L 537.60 203.60 L 534.10 202.20 L 530.30 201.30 L 526.30 201.00 Z M 526.30 209.30 L 528.90 209.50 L 533.90 211.10 L 536.20 212.40 L 539.00 214.60 L 541.40 217.30 L 543.60 220.50 L 545.20 224.10 L 546.40 228.00 L 547.20 232.30 L 547.30 236.70 L 546.80 241.30 L 545.70 246.10 L 544.20 250.20 L 542.30 254.30 L 539.90 258.40 L 536.90 262.60 L 528.90 261.00 L 524.70 259.60 L 521.00 257.90 L 517.70 256.00 L 514.70 253.70 L 512.10 251.20 L 509.90 248.50 L 508.20 245.70 L 506.80 242.60 L 505.90 239.40 L 505.30 236.00 L 505.20 232.40 L 505.70 228.10 L 506.70 224.20 L 508.20 220.60 L 510.30 217.40 L 512.80 214.60 L 515.70 212.40 L 518.10 211.00 L 520.60 210.10 L 523.30 209.50 L 526.30 209.30 Z" fill="url(#SVGID_14_)" fill-rule="evenodd" group-id="3" node-id="311" stroke="none" target-height="172.3" target-width="241.30002" target-x="437.6" target-y="147.7"></path><path d="M 526.30 201.00 L 522.20 201.30 L 518.40 202.10 L 514.80 203.40 L 511.50 205.20 L 508.40 207.40 L 505.60 210.10 L 503.20 213.10 L 501.10 216.40 L 499.40 220.00 L 498.10 223.80 L 497.30 227.90 L 496.90 232.20 L 497.10 236.70 L 497.70 240.90 L 498.90 245.00 L 500.50 248.90 L 502.60 252.50 L 505.20 255.90 L 508.30 259.10 L 511.90 262.00 L 515.70 264.50 L 520.10 266.60 L 524.90 268.40 L 530.40 269.90 L 525.30 274.50 L 519.30 279.20 L 512.40 283.90 L 504.50 288.50 L 495.30 293.20 L 486.60 297.10 L 476.80 301.00 L 466.00 304.70 L 454.00 308.30 L 440.70 311.80 L 439.20 312.50 L 438.20 313.70 L 437.60 315.20 L 437.70 316.90 L 438.40 318.40 L 439.50 319.40 L 441.00 320.00 L 442.70 319.90 L 457.40 316.00 L 470.70 311.90 L 482.70 307.60 L 493.40 303.20 L 502.90 298.70 L 511.30 294.10 L 518.80 289.60 L 525.30 285.00 L 531.10 280.50 L 536.10 275.90 L 540.50 271.20 L 546.40 271.30 L 552.40 270.70 L 558.50 269.70 L 564.70 268.00 L 571.10 265.70 L 577.70 262.80 L 584.50 259.10 L 591.60 254.70 L 598.90 249.50 L 606.40 243.40 L 614.20 236.40 L 622.30 228.40 L 630.70 219.30 L 639.50 209.00 L 648.60 197.40 L 658.10 184.50 L 668.00 170.10 L 678.40 154.10 L 678.90 152.50 L 678.90 150.90 L 678.20 149.50 L 677.10 148.30 L 675.50 147.70 L 673.90 147.80 L 672.50 148.40 L 671.40 149.60 L 660.50 166.40 L 650.20 181.30 L 640.40 194.50 L 631.10 206.20 L 622.20 216.40 L 613.70 225.40 L 605.60 233.10 L 597.90 239.70 L 590.60 245.30 L 583.60 250.00 L 576.90 253.90 L 570.50 257.00 L 564.30 259.40 L 558.30 261.20 L 552.50 262.30 L 546.80 262.90 L 549.60 258.10 L 551.90 253.40 L 553.60 248.60 L 554.80 243.70 L 555.50 238.90 L 555.60 234.30 L 555.20 229.80 L 554.30 225.40 L 553.00 221.40 L 551.30 217.50 L 549.20 214.00 L 546.80 210.80 L 544.00 207.90 L 541.00 205.60 L 537.60 203.60 L 534.10 202.20 L 530.30 201.30 L 526.30 201.00 Z M 526.30 209.30 L 528.90 209.50 L 533.90 211.10 L 536.20 212.40 L 539.00 214.60 L 541.40 217.30 L 543.60 220.50 L 545.20 224.10 L 546.40 228.00 L 547.20 232.30 L 547.30 236.70 L 546.80 241.30 L 545.70 246.10 L 544.20 250.20 L 542.30 254.30 L 539.90 258.40 L 536.90 262.60 L 528.90 261.00 L 524.70 259.60 L 521.00 257.90 L 517.70 256.00 L 514.70 253.70 L 512.10 251.20 L 509.90 248.50 L 508.20 245.70 L 506.80 242.60 L 505.90 239.40 L 505.30 236.00 L 505.20 232.40 L 505.70 228.10 L 506.70 224.20 L 508.20 220.60 L 510.30 217.40 L 512.80 214.60 L 515.70 212.40 L 518.10 211.00 L 520.60 210.10 L 523.30 209.50 L 526.30 209.30 Z" fill="url(#SVGID_15_)" fill-rule="evenodd" group-id="3" node-id="313" stroke="none" target-height="172.3" target-width="241.30002" target-x="437.6" target-y="147.7"></path></g><g node-id="350"><path d="M 653.10 344.40 L 647.20 348.00 L 642.60 351.30 L 639.00 354.40 L 635.70 357.80 L 633.30 361.10 L 631.60 364.10 L 630.30 367.40 L 628.90 373.50 L 628.50 378.10 L 628.70 391.00 L 628.20 396.80 L 627.30 401.40 L 626.20 404.90 L 624.80 407.60 L 623.30 409.60 L 633.80 405.30 L 642.70 401.00 L 650.40 396.80 L 656.90 392.70 L 662.20 388.70 L 666.70 384.80 L 670.30 380.90 L 673.10 377.10 L 675.30 373.30 L 676.80 369.60 L 677.80 365.90 L 678.30 362.10 L 678.20 358.20 L 677.70 354.20 L 675.80 346.30 L 673.20 338.30 L 671.30 335.40 L 672.20 325.50 L 672.10 322.80 L 671.60 322.50 L 671.00 322.60 L 670.50 323.30 L 666.60 335.50 L 658.80 341.00 L 653.10 344.40 Z" fill="url(#SVGID_16_)" fill-rule="evenodd" group-id="4" node-id="318" stroke="none" target-height="87.100006" target-width="55" target-x="623.3" target-y="322.5"></path></g><g node-id="351"><path d="M 342.50 268.80 L 337.00 268.20 L 328.70 268.30 L 324.90 269.00 L 319.30 271.00 L 316.90 272.40 L 313.00 275.60 L 310.60 278.40 L 304.60 286.70 L 301.40 290.20 L 298.70 292.70 L 296.20 294.40 L 294.10 295.50 L 292.20 296.00 L 302.30 298.60 L 311.10 300.30 L 318.80 301.20 L 325.40 301.50 L 331.10 301.20 L 335.90 300.40 L 340.10 299.10 L 343.70 297.40 L 346.80 295.40 L 349.40 293.00 L 351.60 290.20 L 353.40 286.90 L 356.00 281.00 L 357.50 277.00 L 358.40 273.60 L 358.40 271.80 L 363.70 265.90 L 364.90 264.20 L 364.30 263.50 L 363.70 263.70 L 355.30 269.60 L 347.80 269.30 L 342.50 268.80 Z" fill="url(#SVGID_17_)" fill-rule="evenodd" group-id="5" node-id="323" stroke="none" target-height="38" target-width="72.69998" target-x="292.2" target-y="263.5"></path></g><g node-id="352"><path d="M 793.90 272.10 L 794.90 273.10 L 804.90 278.80 L 805.70 279.80 L 805.80 281.50 L 804.60 283.00 L 794.30 288.90 L 788.50 299.10 L 787.20 300.30 L 785.60 300.40 L 784.20 299.40 L 778.10 288.90 L 767.90 283.00 L 766.90 282.10 L 766.60 280.50 L 766.90 279.50 L 767.60 278.80 L 778.10 272.70 L 784.00 262.40 L 785.20 261.30 L 786.90 261.20 L 788.30 262.20 L 793.90 272.10 Z" fill="#d8d8d8" fill-rule="nonzero" group-id="6" node-id="328" stroke="none" target-height="39.19998" target-width="39.200012" target-x="766.6" target-y="261.2"></path><path d="M 793.90 272.10 L 794.90 273.10 L 804.90 278.80 L 805.70 279.80 L 805.80 281.50 L 804.60 283.00 L 794.30 288.90 L 788.50 299.10 L 787.20 300.30 L 785.60 300.40 L 784.20 299.40 L 778.10 288.90 L 767.90 283.00 L 766.90 282.10 L 766.60 280.50 L 766.90 279.50 L 767.60 278.80 L 778.10 272.70 L 784.00 262.40 L 785.20 261.30 L 786.90 261.20 L 788.30 262.20 L 793.90 272.10 Z" fill="url(#SVGID_18_)" fill-rule="nonzero" group-id="6" node-id="330" stroke="none" target-height="39.19998" target-width="39.200012" target-x="766.6" target-y="261.2"></path><path d="M 793.90 272.10 L 794.90 273.10 L 804.90 278.80 L 805.70 279.80 L 805.80 281.50 L 804.60 283.00 L 794.30 288.90 L 788.50 299.10 L 787.20 300.30 L 785.60 300.40 L 784.20 299.40 L 778.10 288.90 L 767.90 283.00 L 766.90 282.10 L 766.60 280.50 L 766.90 279.50 L 767.60 278.80 L 778.10 272.70 L 784.00 262.40 L 785.20 261.30 L 786.90 261.20 L 788.30 262.20 L 793.90 272.10 Z" fill="url(#SVGID_19_)" fill-rule="nonzero" group-id="6" node-id="332" stroke="none" target-height="39.19998" target-width="39.200012" target-x="766.6" target-y="261.2"></path><path d="M 793.90 272.10 L 794.90 273.10 L 804.90 278.80 L 805.70 279.80 L 805.80 281.50 L 804.60 283.00 L 794.30 288.90 L 788.50 299.10 L 787.20 300.30 L 785.60 300.40 L 784.20 299.40 L 778.10 288.90 L 767.90 283.00 L 766.90 282.10 L 766.60 280.50 L 766.90 279.50 L 767.60 278.80 L 778.10 272.70 L 784.00 262.40 L 785.20 261.30 L 786.90 261.20 L 788.30 262.20 L 793.90 272.10 Z" fill="url(#SVGID_20_)" fill-rule="nonzero" group-id="6" node-id="334" stroke="none" target-height="39.19998" target-width="39.200012" target-x="766.6" target-y="261.2"></path></g><g node-id="353"><path d="M 224.10 376.50 L 225.00 377.40 L 231.20 381.00 L 231.90 382.20 L 231.90 383.50 L 230.90 384.90 L 224.50 388.60 L 220.90 394.80 L 219.70 395.90 L 218.30 396.10 L 217.10 395.60 L 212.90 388.60 L 206.70 385.10 L 205.70 384.10 L 205.40 382.50 L 205.90 381.30 L 212.80 377.00 L 216.40 370.90 L 217.70 369.80 L 219.00 369.60 L 220.50 370.30 L 224.10 376.50 Z" fill="#d8d8d8" fill-rule="nonzero" group-id="7" node-id="339" stroke="none" target-height="26.5" target-width="26.5" target-x="205.4" target-y="369.6"></path><path d="M 224.10 376.50 L 225.00 377.40 L 231.20 381.00 L 231.90 382.20 L 231.90 383.50 L 230.90 384.90 L 224.50 388.60 L 220.90 394.80 L 219.70 395.90 L 218.30 396.10 L 217.10 395.60 L 212.90 388.60 L 206.70 385.10 L 205.70 384.10 L 205.40 382.50 L 205.90 381.30 L 212.80 377.00 L 216.40 370.90 L 217.70 369.80 L 219.00 369.60 L 220.50 370.30 L 224.10 376.50 Z" fill="url(#SVGID_21_)" fill-rule="nonzero" group-id="7" node-id="341" stroke="none" target-height="26.5" target-width="26.5" target-x="205.4" target-y="369.6"></path><path d="M 224.10 376.50 L 225.00 377.40 L 231.20 381.00 L 231.90 382.20 L 231.90 383.50 L 230.90 384.90 L 224.50 388.60 L 220.90 394.80 L 219.70 395.90 L 218.30 396.10 L 217.10 395.60 L 212.90 388.60 L 206.70 385.10 L 205.70 384.10 L 205.40 382.50 L 205.90 381.30 L 212.80 377.00 L 216.40 370.90 L 217.70 369.80 L 219.00 369.60 L 220.50 370.30 L 224.10 376.50 Z" fill="url(#SVGID_22_)" fill-rule="nonzero" group-id="7" node-id="343" stroke="none" target-height="26.5" target-width="26.5" target-x="205.4" target-y="369.6"></path><path d="M 224.10 376.50 L 225.00 377.40 L 231.20 381.00 L 231.90 382.20 L 231.90 383.50 L 230.90 384.90 L 224.50 388.60 L 220.90 394.80 L 219.70 395.90 L 218.30 396.10 L 217.10 395.60 L 212.90 388.60 L 206.70 385.10 L 205.70 384.10 L 205.40 382.50 L 205.90 381.30 L 212.80 377.00 L 216.40 370.90 L 217.70 369.80 L 219.00 369.60 L 220.50 370.30 L 224.10 376.50 Z" fill="url(#SVGID_23_)" fill-rule="nonzero" group-id="7" node-id="345" stroke="none" target-height="26.5" target-width="26.5" target-x="205.4" target-y="369.6"></path></g></svg>